<?xml version="1.0" encoding="UTF-8"?>
<svg width="80" height="66" version="1.1" viewBox="0 0 80 66" xmlns="http://www.w3.org/2000/svg" xmlns:cc="http://creativecommons.org/ns#" xmlns:dc="http://purl.org/dc/elements/1.1/" xmlns:rdf="http://www.w3.org/1999/02/22-rdf-syntax-ns#">
 <metadata>
  <rdf:RDF>
   <cc:Work rdf:about="">
    <dc:format>image/svg+xml</dc:format>
    <dc:type rdf:resource="http://purl.org/dc/dcmitype/StillImage"/>
    <dc:title/>
   </cc:Work>
  </rdf:RDF>
 </metadata>
 <rect x="35" y="5" width="10" height="8" ry="0" fill="#f00"/>
 <rect x="36" y="15" width="8" height="12" ry="0" fill="#f88"/>
 <rect transform="scale(-1,1)" x="-29" y="5" width="10" height="8" ry="0" fill="#f00"/>
 <rect transform="scale(-1,1)" x="-35" y="32" width="21" height="1.98" ry="0" fill="#000"/>
 <path d="m26 15-8 12h-8l8-12z" fill="#f88"/>
 <rect transform="scale(-1)" x="-19" y="-10" width="14" height="2" ry="0" fill="#000"/>
 <g fill="#f00">
  <rect transform="scale(-1,1)" x="-17" y="29" width="10" height="8" ry="0"/>
  <rect x="35" y="29" width="10" height="8" ry="0"/>
  <rect x="51" y="5" width="10" height="8" ry="0"/>
 </g>
 <rect x="45" y="32" width="21" height="1.98" ry="0" fill="#000"/>
 <path d="m54 15 8 12h8l-8-12z" fill="#f88"/>
 <rect transform="scale(1,-1)" x="61" y="-10" width="14" height="2" ry="0" fill="#000"/>
 <rect x="63" y="29" width="10" height="8" ry="0" fill="#f00"/>
 <rect transform="scale(1,-1)" x="35" y="-61" width="10" height="8" ry="0" fill="#f00"/>
 <rect transform="scale(1,-1)" x="36" y="-51" width="8" height="12" ry="0" fill="#f88"/>
 <rect transform="scale(-1)" x="-29" y="-61" width="10" height="8" ry="0" fill="#f00"/>
 <path d="m26 51-8-12h-8l8 12z" fill="#f88"/>
 <rect transform="scale(-1,1)" x="-19" y="56" width="14" height="2" ry="0" fill="#000"/>
 <rect transform="scale(1,-1)" x="51" y="-61" width="10" height="8" ry="0" fill="#f00"/>
 <path d="m54 51 8-12h8l-8 12z" fill="#f88"/>
 <g fill="#000">
  <rect x="61" y="56" width="14" height="2" ry="0"/>
  <rect transform="scale(-1,1)" x="-35" y="56" width="6" height="2" ry="0"/>
  <rect transform="scale(-1,1)" x="-51" y="56" width="6" height="2" ry="0"/>
  <rect transform="scale(-1,1)" x="-51" y="8" width="6" height="2" ry="0"/>
  <rect transform="scale(-1,1)" x="-35" y="8" width="6" height="2" ry="0"/>
 </g>
</svg>
